<svg width="20" height="20" viewBox="0 0 20 20" fill="none" xmlns="http://www.w3.org/2000/svg">
<path d="M8.23997 8.39038C7.66997 8.39038 7.21997 8.89038 7.21997 9.50038C7.21997 10.1104 7.67997 10.6104 8.23997 10.6104C8.80997 10.6104 9.25997 10.1104 9.25997 9.50038C9.26997 8.89038 8.80997 8.39038 8.23997 8.39038ZM11.89 8.39038C11.32 8.39038 10.87 8.89038 10.87 9.50038C10.87 10.1104 11.33 10.6104 11.89 10.6104C12.46 10.6104 12.91 10.1104 12.91 9.50038C12.91 8.89038 12.46 8.39038 11.89 8.39038Z" fill="#F1F8FF"/>
<path d="M16.7499 0H3.34993C2.21993 0 1.29993 0.92 1.29993 2.06V15.58C1.29993 16.72 2.21993 17.64 3.34993 17.64H14.6899L14.1599 15.79L15.4399 16.98L16.6499 18.1L18.7999 20V2.06C18.7999 0.92 17.8799 0 16.7499 0ZM12.8899 13.06C12.8899 13.06 12.5299 12.63 12.2299 12.25C13.5399 11.88 14.0399 11.06 14.0399 11.06C13.6299 11.33 13.2399 11.52 12.8899 11.65C12.3899 11.86 11.9099 12 11.4399 12.08C10.4799 12.26 9.59993 12.21 8.84993 12.07C8.27993 11.96 7.78993 11.8 7.37993 11.64C7.14993 11.55 6.89993 11.44 6.64993 11.3C6.61993 11.28 6.58993 11.27 6.55993 11.25C6.53993 11.24 6.52993 11.23 6.51993 11.22C6.33993 11.12 6.23993 11.05 6.23993 11.05C6.23993 11.05 6.71993 11.85 7.98993 12.23C7.68993 12.61 7.31993 13.06 7.31993 13.06C5.10993 12.99 4.26993 11.54 4.26993 11.54C4.26993 8.32 5.70993 5.71 5.70993 5.71C7.14993 4.63 8.51993 4.66 8.51993 4.66L8.61993 4.78C6.81993 5.3 5.98993 6.09 5.98993 6.09C5.98993 6.09 6.20993 5.97 6.57993 5.8C7.64993 5.33 8.49993 5.2 8.84993 5.17C8.90993 5.16 8.95993 5.15 9.01993 5.15C9.62993 5.07 10.3199 5.05 11.0399 5.13C11.9899 5.24 13.0099 5.52 14.0499 6.09C14.0499 6.09 13.2599 5.34 11.5599 4.82L11.6999 4.66C11.6999 4.66 13.0699 4.63 14.5099 5.71C14.5099 5.71 15.9499 8.32 15.9499 11.54C15.9499 11.54 15.0999 12.99 12.8899 13.06Z" fill="#F1F8FF"/>
</svg>
